<svg xmlns="http://www.w3.org/2000/svg" version="1.1" xmlns:xlink="http://www.w3.org/1999/xlink" xmlns:svgjs="http://svgjs.dev/svgjs" width="1000" height="1000" viewBox="0 0 1000 1000"><rect width="1000" height="1000" fill="#000000"></rect><g transform="matrix(0.7,0,0,0.7,149.57575758829603,389.1166064806221)"><svg viewBox="0 0 396 126" data-background-color="#171717" preserveAspectRatio="xMidYMid meet" height="318" width="1000" xmlns="http://www.w3.org/2000/svg" xmlns:xlink="http://www.w3.org/1999/xlink"><g id="tight-bounds" transform="matrix(1,0,0,1,0.24000000709321512,-0.23581498903141096)"><svg viewBox="0 0 395.52 126.47162997806284" height="126.47162997806284" width="395.52"><g><svg viewBox="0 0 610.9547368099162 195.359125726053" height="126.47162997806284" width="395.52"><g transform="matrix(1,0,0,1,0,55.16018121503332)"><svg viewBox="0 0 395.5199999999999 85.03876329598637" height="85.03876329598637" width="395.5199999999999"><g id="textblocktransform"><svg viewBox="0 0 395.5199999999999 85.03876329598637" height="85.03876329598637" width="395.5199999999999" id="textblock"><g><svg viewBox="0 0 395.5199999999999 85.03876329598637" height="85.03876329598637" width="395.5199999999999"><g transform="matrix(1,0,0,1,0,0)"><svg width="395.5199999999999" viewBox="3.490000009536743 -37.0099983215332 172.12998962402344 37.0099983215332" height="85.03876329598637" data-palette-color="#ffffff"><path d="M3.49 0L3.49-4.2 7.01-4.2 7.01-32.35 3.49-32.35 3.49-37.01 15.21-37.01 26.95-5.05 38.84-37.01 49.95-37.01 49.95-32.35 46.46-32.35 46.46-4.2 49.95-4.2 49.95 0 37.94 0 37.94-4.2 41.89-4.2 41.89-32.62 28.96 0 24.8 0 11.69-32.69 11.69-4.2 15.5-4.2 15.5 0 3.49 0ZM56.93-32.79L56.93-37.01 83.44-37.01 83.44-26.54 78.44-26.54 78.44-32.79 65.23-32.79 65.23-20.95 76.34-20.95 76.34-16.75 65.23-16.75 65.23-4.2 78.44-4.2 78.44-10.45 83.44-10.45 83.44 0 56.93 0 56.93-4.2 60.45-4.2 60.45-32.79 56.93-32.79ZM88.33-32.79L88.33-37.01 102.09-37.01Q104.63-37.01 106.93-36.35 109.22-35.69 111.2-34.5 113.18-33.3 114.79-31.63 116.4-29.96 117.54-27.91 118.67-25.85 119.28-23.5 119.89-21.14 119.89-18.6L119.89-18.6Q119.89-16.02 119.28-13.65 118.67-11.28 117.54-9.2 116.4-7.13 114.79-5.43 113.18-3.74 111.2-2.53 109.22-1.32 106.93-0.66 104.63 0 102.09 0L102.09 0 88.33 0 88.33-4.2 91.84-4.2 91.84-32.79 88.33-32.79ZM102.39-32.79L96.63-32.79 96.63-4.2 102.39-4.2Q104.95-4.2 107.21-5.32 109.47-6.45 111.15-8.39 112.84-10.33 113.81-12.95 114.79-15.58 114.79-18.6L114.79-18.6Q114.79-21.58 113.81-24.17 112.84-26.76 111.15-28.67 109.47-30.59 107.21-31.69 104.95-32.79 102.39-32.79L102.39-32.79ZM125.11-32.79L125.11-37.01 136.93-37.01 136.93-32.79 133.42-32.79 133.42-4.2 136.93-4.2 136.93 0 125.11 0 125.11-4.2 128.63-4.2 128.63-32.79 125.11-32.79ZM163.61-32.79L163.61-37.01 175.62-37.01 175.62-32.79 172.89-32.79 162.88-18.9 173.33-4.2 175.62-4.2 175.62 0 163.61 0 163.61-4.2 168.13-4.2 160.22-15.21 152.26-4.2 156.58-4.2 156.58 0 144.57 0 144.57-4.2 146.99-4.2 157.53-18.92 147.57-32.79 144.57-32.79 144.57-37.01 156.58-37.01 156.58-32.79 153.02-32.79 160.22-22.66 167.49-32.79 163.61-32.79Z" opacity="1" transform="matrix(1,0,0,1,0,0)" fill="#ffffff" class="undefined-text-0" data-fill-palette-color="primary" id="text-0"></path></svg></g></svg></g></svg></g></svg></g><g transform="matrix(1,0,0,1,415.5956110838632,0)"><svg viewBox="0 0 195.359125726053 195.359125726053" height="195.359125726053" width="195.359125726053"><g><svg></svg></g><g id="icon-0"><svg viewBox="0 0 195.359125726053 195.359125726053" height="195.359125726053" width="195.359125726053"><g><rect width="177.63209394720747" height="177.63209394720747" x="8.863515889422771" y="8.863515889422771" fill="#ffffff" data-fill-palette-color="accent"></rect><rect width="177.63209394720747" height="177.63209394720747" x="-3.552713678800501e-15" y="-3.552713678800501e-15" fill="#ffffff" opacity="0.5" data-fill-palette-color="accent"></rect></g><g transform="matrix(1,0,0,1,25.3243311126365,25.3243311126365)"><svg viewBox="0 0 144.71046350078 144.71046350078" height="144.71046350078" width="144.71046350078"><g><svg xmlns="http://www.w3.org/2000/svg" xmlns:xlink="http://www.w3.org/1999/xlink" version="1.1" x="0" y="0" viewBox="5.672000885009766 5.631004333496094 88.63999938964844 88.63999938964844" enable-background="new 0 0 100 100" xml:space="preserve" height="144.71046350078" width="144.71046350078" class="icon-s-0" data-fill-palette-color="background" id="s-0"><path d="M49.992 94.271c-24.438 0-44.32-19.882-44.32-44.32 0-24.438 19.882-44.32 44.32-44.32 24.438 0 44.32 19.882 44.32 44.32C94.312 74.389 74.431 94.271 49.992 94.271zM49.992 14.494c-19.55 0-35.456 15.906-35.456 35.456 0 19.551 15.906 35.456 35.456 35.456 19.551 0 35.456-15.905 35.456-35.456C85.448 30.4 69.543 14.494 49.992 14.494z" fill="#171717" data-fill-palette-color="background"></path><polygon points="73.734,43.619 56.324,43.619 56.324,26.208 43.661,26.208 43.661,43.619 26.25,43.619 26.25,56.282 43.661,56.282   43.661,73.692 56.324,73.692 56.324,56.282 73.734,56.282 " fill="#171717" data-fill-palette-color="background"></polygon></svg></g></svg></g></svg></g></svg></g></svg></g><defs></defs></svg><rect width="395.52" height="126.47162997806284" fill="none" stroke="none" visibility="hidden"></rect></g></svg></g></svg>